<svg xmlns="http://www.w3.org/2000/svg" viewBox="0 0 512 512" width="512" height="512"><title>Illuminate Memories</title><defs><radialGradient id="halo" gradientUnits="userSpaceOnUse" cx="256" cy="248" r="222"><stop offset="0%" stop-color="rgb(224,161,64)" stop-opacity="0.55"/><stop offset="50%" stop-color="rgb(224,161,64)" stop-opacity="0.20"/><stop offset="100%" stop-color="rgb(224,161,64)" stop-opacity="0"/></radialGradient><linearGradient id="metal" x1="0" y1="0" x2="0" y2="1"><stop offset="0%" stop-color="#EBC07E"/><stop offset="46%" stop-color="#E0A140"/><stop offset="100%" stop-color="#C7842A"/></linearGradient><radialGradient id="bloom" cx="50%" cy="50%" r="50%"><stop offset="0%" stop-color="#FFF4DE" stop-opacity="0.95"/><stop offset="42%" stop-color="#FFF4DE" stop-opacity="0.50"/><stop offset="100%" stop-color="#FFF4DE" stop-opacity="0"/></radialGradient></defs><rect x="0" y="0" width="512" height="512" rx="116" fill="#16120E"/><rect x="0" y="0" width="512" height="512" fill="url(#halo)"/><path d="M128 74 L384 74 L384 106 C336 106 294 110 294 130 L294 382 C294 402 340 406 384 406 L384 438 L128 438 L128 406 C172 406 218 402 218 382 L218 130 C218 110 176 106 128 106 Z" fill="url(#metal)"/><ellipse cx="256" cy="256" rx="44" ry="150" fill="url(#bloom)"/></svg>